<?xml version="1.0" encoding="UTF-8"?>
<svg id="Layer_1" data-name="Layer 1" xmlns="http://www.w3.org/2000/svg" version="1.1" xmlns:xlink="http://www.w3.org/1999/xlink" viewBox="0 0 298.61 334.83">
  <defs>
    <style>
      .cls-1 {
        fill: url(#linear-gradient);
      }

      .cls-1, .cls-2, .cls-3, .cls-4, .cls-5, .cls-6, .cls-7 {
        stroke-width: 0px;
      }

      .cls-2 {
        fill: #f0e8d5;
      }

      .cls-3 {
        fill: none;
      }

      .cls-4 {
        fill: url(#Orange_Yellow);
      }

      .cls-5 {
        fill: #eb543c;
      }

      .cls-6 {
        fill: url(#Orange_Yellow-2);
      }

      .cls-7 {
        fill: url(#Orange_Yellow-3);
      }
    </style>
    <linearGradient id="linear-gradient" x1="102.08" y1="137.39" x2="213.93" y2="137.39" gradientUnits="userSpaceOnUse">
      <stop offset="0" stop-color="#99dbf9"/>
      <stop offset="1" stop-color="#6eaadc"/>
    </linearGradient>
    <linearGradient id="Orange_Yellow" data-name="Orange, Yellow" x1="125.03" y1="107.76" x2="196.65" y2="107.76" gradientUnits="userSpaceOnUse">
      <stop offset="0" stop-color="#fff33b"/>
      <stop offset=".04" stop-color="#fee62d"/>
      <stop offset=".12" stop-color="#fdd51b"/>
      <stop offset=".2" stop-color="#fdca0f"/>
      <stop offset=".28" stop-color="#fdc70c"/>
      <stop offset=".67" stop-color="#f3903f"/>
      <stop offset=".89" stop-color="#ed683c"/>
      <stop offset="1" stop-color="#e93e3a"/>
    </linearGradient>
    <linearGradient id="Orange_Yellow-2" data-name="Orange, Yellow" x1="110.4" y1="84.59" x2="144.52" y2="84.59" xlink:href="#Orange_Yellow"/>
    <linearGradient id="Orange_Yellow-3" data-name="Orange, Yellow" x1="127.03" y1="57.87" x2="196.7" y2="57.87" xlink:href="#Orange_Yellow"/>
  </defs>
  <path class="cls-1" d="M213.93,146.42s-.02.03-.03.06c-1.65,2.96-33.37,59.65-51.65,88.14-1.23,1.92-2.4,3.71-3.5,5.35-.69,1.04-1.35,2.01-1.99,2.92-.02.02-.03.05-.05.07-.09.13-.18.26-.27.39-2.67,2.67-4.99,1.22-6.36-.25,0,0,0-.01,0-.01-.4-.54-.81-1.12-1.27-1.74,0,0,0,0,0-.01-6.86-9.49-20.16-28.8-30.82-49.83-13.71-27.05-23.05-56.94-8.74-72.49,1.73-1.88,3.81-3.56,6.28-4.99l5.2-3.4c1.83-1.2,3.67-2.4,5.51-3.6,7.22-4.72,14.55-9.51,22.24-14.54-11.5-9.09-20.81-20.2-28.89-32.54-.45-.68-.89-1.38-1.33-2.07-1.07-1.68-2.12-3.39-3.15-5.11-.36-.61-.72-1.22-1.08-1.83-.24-.4-.47-.8-.71-1.21-.24-.42-.48-.84-.72-1.26-.61-1.07-1.21-2.14-1.81-3.22-1.38-2.49-2.72-5.02-4.04-7.57-.65-1.26-1.3-2.54-1.95-3.82-.65-1.3-1.29-2.6-1.94-3.92,1.18,1.11,2.39,2.17,3.55,3.31,2.05,2.04,4.12,4.05,6.22,6.01.7.65,1.4,1.3,2.1,1.94.5.46.99.91,1.49,1.36.79.71,1.58,1.42,2.38,2.11,1.37,1.2,2.74,2.39,4.13,3.55.78.65,1.56,1.3,2.35,1.94.02.02.05.04.07.06.41.33.81.65,1.22.98,12.5,10.02,25.83,18.38,40.32,24.4,7.88,3.27,15.88,5.93,24.8,3.62.33-.08.65-.16.98-.21h0c1.3-.25,2.58-.31,3.85-.14,2.64.36,5.24,1.71,7.85,4.44-2.61.94-5.21,1.88-7.82,2.82-1.64.59-3.27,1.18-4.91,1.77-7.66,2.76-15.28,5.51-22.86,8.24-4.62,1.66-9.21,3.32-13.81,4.98-8.35,3.01-16.67,6.01-24.99,9.01-2.4.86-4.79,1.73-7.19,2.59-5.37,1.94-9.12,4.89-9.76,5.42-.02,0-.03.02-.05.05-.01,0-.02.01-.03.02h0s-.01.02-.01.02c-.43.41-.86.85-1.28,1.33-.15.17-.3.34-.45.52s-.29.36-.44.55c-7.17,9.37-10.64,30.26,29.03,71.83.08.09.17.19.27.28.08,0,.19-.05.26-.21-.1-.12-.21-.25-.33-.38-13.85-15.92-39.87-50.5-26.96-69.07,2.18-3.14,5.49-5.83,10.17-7.89-.45.28-5.56,3.56-8.57,9.46-5.25,10.28-4.1,28.51,39.38,52.61.35.19.67-.3.34-.54-6.72-4.83-17.34-13.74-19.9-23.35-.11-.4.42-.64.65-.3,3.46,4.97,15.72,18.63,42.29,11.71,9.92-2.58,21.2-8.74,35.38-18.61.42-.29,1-.21,1.3.21.03.04.04.06.04.07Z"/>
  <path class="cls-4" d="M196.65,89.24s0,.05-.01.07c-.03.26-.07.51-.11.77-.07.45-.15.89-.24,1.33-.05.23-.09.45-.14.68-.01.05-.02.11-.03.16-.06.29-.12.57-.19.86-.13.56-.27,1.11-.42,1.66-.07.26-.15.52-.23.78-.23.76-.47,1.52-.74,2.27-.2.56-.42,1.12-.64,1.68,0,.02-.02.03-.02.05-.12.3-.25.59-.38.89-.25.58-.52,1.16-.8,1.73-.84,1.72-1.79,3.36-2.84,4.94-.17.25-.33.5-.5.74-.02.03-.04.05-.06.08-.17.24-.35.49-.52.73-.21.3-.43.59-.67.88-.15.2-.3.39-.46.58-.14.18-.29.37-.44.55-.16.2-.33.4-.5.59-.19.21-.37.43-.56.64-.14.16-.28.31-.42.46-.19.21-.39.42-.59.63,0,0,0,.01-.01.01-.19.2-.37.39-.56.58-3.25,3.27-7.02,6.02-11.18,8.11-.2.1-.41.2-.62.3-.22.11-.45.21-.67.32-.23.11-.45.21-.67.3-.39.17-.78.34-1.18.5-.25.1-.51.2-.77.3-.02,0-.03.01-.05.02-.27.1-.54.2-.81.3-.05.02-.09.03-.14.05-.21.08-.43.15-.65.23-.42.14-.85.28-1.28.41-.19.06-.37.11-.56.17-.23.07-.46.13-.69.19-.03.01-.05.02-.07.02-.24.07-.48.13-.72.19-.22.06-.43.11-.65.16-.27.06-.54.12-.81.18-.27.06-.54.11-.8.16-.21.05-.43.08-.65.12-.78.14-1.56.26-2.35.35-.34.05-.68.08-1.03.11-.17.02-.35.03-.53.05-.21.02-.42.04-.63.05-1,.07-2.01.11-3.03.11-.38,0-.76,0-1.13-.02-.32,0-.64-.02-.95-.03-.34-.02-.69-.03-1.03-.06-.25-.02-.51-.03-.76-.06-.47-.04-.95-.09-1.42-.15-.29-.03-.58-.07-.87-.12h-.01c-.25-.03-.5-.07-.74-.11-.17-.03-.33-.06-.5-.08-.25-.04-.49-.08-.73-.14h-.02c-.33-.06-.65-.13-.98-.2-.44-.09-.87-.2-1.31-.3-.21-.05-.42-.11-.64-.16-1.74-.46-3.45-1.04-5.11-1.72-.25-.1-.5-.2-.74-.3-.42-.18-.83-.36-1.24-.56-.2-.09-.4-.19-.6-.29-.71-.34-1.4-.7-2.08-1.08-.3-.16-.59-.33-.89-.5-.15-.08-.3-.17-.45-.27-.2-.12-.4-.24-.6-.37-1.15-.72-2.26-1.48-3.33-2.31-.28-.21-.56-.43-.83-.65-.46-.37-.9-.74-1.34-1.12-.23-.2-.46-.41-.69-.62,1.96-.71,3.93-1.42,5.9-2.13,8.32-3,16.64-6,24.99-9.01,4.59-1.66,9.19-3.31,13.81-4.98,7.58-2.73,15.2-5.48,22.86-8.24,1.35-.49,2.71-.98,4.06-1.46Z"/>
  <path class="cls-6" d="M144.52,91.92c-7.69,5.03-15.02,9.82-22.24,14.54-1.08.7-2.15,1.41-3.22,2.1-5.45-7.21-8.67-16.18-8.67-25.9,0-8.05,2.21-15.59,6.07-22.04,7.88,11.85,16.95,22.52,28.06,31.3Z"/>
  <path class="cls-7" d="M196.7,75.97c-1.03-.06-2.05.02-3.09.21h0c-.32.06-.65.14-.98.22-8.92,2.3-16.92-.35-24.8-3.62-14.49-6.02-27.83-14.38-40.32-24.4-.16-.13-.32-.25-.47-.38,7.38-5.95,16.77-9.51,26.98-9.51,21.89,0,39.96,16.34,42.68,37.49Z"/>
  <path class="cls-2" d="M235.48,83.04c0,.11,0,.23,0,.34-6.56,66.1-64.78,68.85-78.89,68.53-.59-.01-.7-.84-.13-1.01,36.61-11.41,48.47-37.24,52.31-53.54,0-.02,0-.04.02-.06.93-3.64,1.52-7.42,1.71-11.3.01-.17.02-.33.03-.49,0-.17.02-.35.02-.51,0-.16.01-.32.02-.46v-.03c.03-.95.02-1.47.02-1.47,0-31.51-25.55-57.06-57.06-57.06-14.81,0-28.3,5.64-38.44,14.89-.2.18-.5.18-.7,0-.59-.54-1.17-1.08-1.76-1.62-2.09-1.96-4.16-3.97-6.22-6.01-.49-.49-.99-.96-1.5-1.43-.42-.39-1.08.1-.82.61.23.47.47.94.7,1.42.64,1.28,1.29,2.56,1.95,3.82,1.26,2.45,2.55,4.87,3.87,7.26.1.19.08.42-.06.58-8.77,10.03-14.08,23.16-14.08,37.53,0,10.86,3.04,21.01,8.3,29.65h0s-9.35,10.16-8.43,21.62c.04.44-.46.72-.82.45-2.86-2.12-11.62-9.44-17.73-23.46l-.04-.09c-.35-.95-.69-1.9-1.03-2.85-2.35-6.68-4.1-13.44-4.82-20.35,0-.06-.01-.11-.02-.16-.13-1.36-.23-2.75-.3-4.18,0-.11-.01-.23-.01-.34-.09-2.47-.04-4.95.17-7.47.1-1.2.24-2.4.41-3.62,1.47-10.21,4.42-19.84,9.39-28.9,8.26-15.08,20.13-26.38,35.38-34.11,8.3-4.21,17.15-6.7,26.4-7.92,8.91-1.17,17.75-.81,26.5.95,9.16,1.85,17.8,5.18,25.85,10.05,7.56,4.57,14.24,10.15,19.99,16.82,5.83,6.76,10.42,14.29,13.83,22.57,2.4,5.84,4.12,11.88,5.09,18.06.69,4.44,1.01,8.86.89,13.27Z"/>
  <path class="cls-3" d="M140.15,192.5c-.07.16-.18.2-.26.21-.1-.1-.19-.19-.27-.28l.2-.3c.11.13.23.25.33.38Z"/>
  <path class="cls-2" d="M86.06,300.67c-2.63-.22-4.71-1.47-6.25-3.56-1.26-1.71-2.46-3.48-3.54-5.31-1.64-2.8-3.4-5.48-6.1-7.63.7-.46,1.19-.74,1.66-1.08,3.31-2.4,5.32-5.57,5.42-9.72.18-6.87-4.49-12.14-11.83-13.17-6.3-.88-12.65-.19-18.98-.37-.52-.01-.9.1-.94.72-.04.53-.15,1,.52,1.27,1.69.71,2.14,2.23,2.14,3.83.04,10.36.04,20.72,0,31.09,0,1.6-.47,3.14-2.14,3.83-.7.29-.56.74-.53,1.25.04.68.47.82,1.07.82,4.03-.01,8.06-.01,12.09,0,.57,0,1.04-.04,1.06-.77.02-.49.29-1-.45-1.27-1.43-.53-1.89-1.79-2.05-3.14-.45-3.56-.13-7.13-.22-10.7-.02-.8.42-.86,1.08-.95,2.3-.28,3.98.6,5.37,2.39,2.52,3.24,4.53,6.79,6.6,10.31,1.38,2.35,3.37,3.71,5.98,4.24,3.38.69,6.76.45,10.14.02.71-.09,1.19-.17,1.15-1.08-.04-.92-.57-.97-1.25-1.02ZM68.13,274.87c-.21,1.12-.54,2.23-.94,3.3-1.22,3.24-3.21,4.57-6.69,4.59q-3.51.02-3.51-3.5v-6.38c0-2.87.03-5.75-.02-8.62-.02-1.02.26-1.37,1.34-1.4,7.43-.19,11.26,4.43,9.82,12Z"/>
  <path class="cls-2" d="M255.95,292.69v-1.67c0-7.89.04-15.79-.02-23.68-.02-2.18.37-4.63-2.43-5.7-.55-.21-.25-.82-.24-1.25,0-.6.46-.55.86-.55,2.19,0,4.38,0,6.57,0,.45,0,.96-.07.97.63,0,.5.22,1.09-.47,1.31-1.78.56-1.99,2.06-2.16,3.58-.08.74-.08,1.5-.08,2.24,0,10.83,0,21.66,0,32.49,0,2.34-.25,2.27-2.58,2.6-3.83.55-5.9-.95-7.81-4.3-5.24-9.2-10.94-18.13-16.46-27.17-.32-.53-.67-1.04-1.37-1.54,0,1.1,0,2.21,0,3.31.02,7.78.06,15.56.07,23.33,0,1.89.26,3.59,2.36,4.32.73.25.4.85.4,1.32,0,.53-.37.66-.82.66-2.31,0-4.61,0-6.92,0-.56,0-.88-.21-.87-.8,0-.49-.19-.99.55-1.24,1.75-.6,2.19-2.05,2.19-3.72,0-10.37.02-20.74-.01-31.11,0-1.7-.22-3.39-2.25-4.02-.71-.22-.45-.83-.44-1.31.01-.57.44-.59.86-.59,3,0,5.99.01,8.99,0,.93,0,1.08.78,1.41,1.32,6.14,10.01,12.25,20.03,18.37,30.05.32.53.65,1.06.97,1.59.13-.03.25-.07.38-.1Z"/>
  <path class="cls-2" d="M282.57,302.63c-4.26,0-8.53,0-12.79-.01-.58,0-1.31.27-1.53-.67-.19-.81.12-1.16.85-1.57,1.61-.9,1.83-2.56,1.83-4.21.02-8.01.02-16.01.03-24.02,0-2.07.03-4.15-.04-6.22-.05-1.72-.39-3.36-2.22-4.14-.69-.29-.5-.81-.44-1.31.1-.9.82-.65,1.34-.65,5.47-.01,10.95,0,16.42,0,3,0,6,.12,8.99-.05,1.62-.09,2.14.54,2.52,1.98.69,2.64,1.21,5.26,1.03,8-.04.67,0,1.23-.94,1.27-.89.04-.97-.43-1.14-1.12-1.11-4.58-4.06-6.93-8.76-7-2.25-.03-4.5.04-6.74-.03-1.01-.03-1.27.34-1.26,1.3.04,4.72.04,9.45,0,14.17,0,.93.2,1.39,1.24,1.32,1.44-.1,2.88-.02,4.32-.13,3.04-.23,4.34-1.34,5.01-4.29.17-.73.24-1.31,1.25-1.21,1.01.1.83.76.83,1.36,0,3.86.01,7.72,0,11.58,0,.5.28,1.19-.69,1.27-.85.07-1.25-.18-1.38-1.07-.39-2.65-2.05-3.88-4.65-4.3-5.72-.92-5.91-.81-5.91,4.9,0,3.34.08,6.68-.03,10.02-.05,1.49.45,1.86,1.86,1.78,2.01-.12,4.03-.02,6.05-.03,4.59-.03,7.82-2.55,8.85-6.95.19-.79.23-1.43,1.32-1.31,1.18.13.7.97.77,1.56.35,3.05-.58,5.91-1.3,8.82-.26,1.04-.94.97-1.7.97-4.32,0-8.64,0-12.97,0Z"/>
  <path class="cls-2" d="M20.07,259.83c5.7,0,11.41,0,17.11,0,.68,0,1.28-.12,1.56.87.85,3,1.53,6.01,1.27,9.17-.05.6.02,1.12-.85,1.16-.76.04-.92-.27-1.11-.93-1.51-5.29-4.07-7.18-9.64-7.19q-3.99,0-3.99,4.05c0,9.21,0,18.42,0,27.64,0,1.22.07,2.42.36,3.6.26,1.04.78,1.96,1.84,2.36.8.3.55.88.55,1.42,0,.68-.5.66-.97.66-4.09,0-8.18,0-12.27,0-.46,0-.99.05-.97-.64.01-.47-.31-1.06.38-1.35,1.99-.84,2.33-2.63,2.34-4.44.05-10.71.02-21.42.06-32.13,0-.89-.25-1.23-1.16-1.19-1.38.07-2.77-.01-4.15.03-4.21.14-7.12,2.49-8.21,6.58-.06.22-.16.44-.17.67-.06.77-.5.88-1.18.85-.78-.04-.73-.52-.77-1.05-.26-3.21.4-6.27,1.31-9.33.3-1.03.96-.79,1.59-.79,5.7-.01,11.41,0,17.11,0Z"/>
  <path class="cls-2" d="M128.29,300.59c-2.46-.79-3.51-2.8-4.32-5.04-1.95-5.41-3.92-10.81-5.88-16.21-2.22-6.1-4.45-12.21-6.67-18.31-.23-.64-.37-1.26-1.35-1.26-.99,0-1.08.65-1.32,1.27-.13.32-.23.65-.35.98-4.04,11.13-8.08,22.26-12.11,33.4-.83,2.28-1.89,4.37-4.41,5.18-.76.24-.53.73-.53,1.23.01.7.41.83,1.01.82,2.25-.02,4.5,0,6.75-.01.39,0,.91.07.94-.49.03-.52.38-1.18-.39-1.5-1.23-.52-1.07-1.58-.82-2.51.45-1.66,1.09-3.27,1.58-4.92.21-.69.6-.86,1.26-.86,3.57.02,7.15.02,10.72,0,.62,0,1.06.07,1.28.8.55,1.75,1.22,3.47,1.79,5.22.29.88.28,1.81-.79,2.15-.76.25-.77.67-.7,1.3.1.81.64.82,1.25.82,2.08-.01,4.15,0,6.23,0,2.13,0,4.27-.01,6.4,0,.61,0,1-.13,1.01-.84.01-.52.14-.98-.58-1.21ZM101.91,289.16c1.68-4.69,3.33-9.31,5.17-14.44,1.82,5.06,3.47,9.69,5.18,14.44h-10.35Z"/>
  <path class="cls-2" d="M147.71,287.67c2.32-6.48,4.5-12.52,6.66-18.58.54-1.51,1.06-3.04,1.51-4.58.31-1.06.58-2.17-.81-2.8-.64-.29-.36-.91-.32-1.39.06-.71.68-.48,1.08-.48,2.19-.02,4.38-.02,6.57,0,.43,0,.97-.15,1.02.57.04.57.22,1.18-.56,1.42-2.55.82-3.55,2.93-4.37,5.2-4.12,11.34-8.25,22.68-12.4,34.02-.25.68-.2,1.62-1.41,1.64-1.21.01-1.18-.9-1.43-1.59-4.04-11.13-8.06-22.26-12.1-33.39-.91-2.51-1.84-5.02-4.77-5.93-.72-.22-.44-.82-.43-1.31.02-.69.52-.63.98-.63,4.26,0,8.53,0,12.79,0,.39,0,.86-.08.91.51.03.43.4,1.03-.14,1.26-2.12.91-1.25,2.42-.77,3.78,2.2,6.23,4.45,12.45,6.68,18.67.39,1.08.78,2.16,1.31,3.62Z"/>
  <path class="cls-2" d="M182.66,302.64c-4.21,0-8.41.02-12.62-.02-.61,0-1.42.38-1.74-.62-.3-.94.26-1.24.95-1.67,1.43-.88,1.7-2.4,1.72-3.93.04-4.43.03-8.87.04-13.31,0-5.53,0-11.06-.02-16.59-.01-1.95-.21-3.85-2.35-4.77-.6-.26-.36-.76-.34-1.19.02-.63.44-.71.95-.71,4.09,0,8.18,0,12.27,0,.48,0,.93-.01.96.66.02.51.23,1.05-.44,1.32-1.63.68-1.99,2.11-2.14,3.65-.07.74-.14,1.49-.14,2.24,0,10.08.02,20.16-.03,30.24,0,1.27.31,1.72,1.64,1.65,2.13-.11,4.26-.01,6.39-.03,4.47-.05,7.68-2.58,8.71-6.91.18-.75.14-1.46,1.28-1.36,1.19.1.75.93.82,1.52.34,3.05-.57,5.91-1.29,8.82-.25,1.02-.88,1.02-1.67,1.02-4.32-.02-8.64,0-12.97,0Z"/>
  <path class="cls-2" d="M215.39,281.3c0,4.55-.06,9.1.03,13.65.04,2.2-.16,4.6,2.47,5.78.62.28.21.93.17,1.41-.05.58-.53.5-.92.5-4.03,0-8.07,0-12.1,0-.55,0-1.07-.03-1.12-.75-.03-.48-.28-.99.45-1.28,1.69-.68,2.19-2.2,2.19-3.8.05-10.43.04-20.85,0-31.28,0-1.53-.48-3.01-2.09-3.68-.76-.32-.6-.86-.53-1.42.08-.67.6-.59,1.05-.59,4.03,0,8.07,0,12.1,0,.44,0,.98-.12,1.01.59.02.49.31,1.06-.37,1.35-1.86.78-2.2,2.44-2.22,4.14-.06,5.12-.02,10.25-.02,15.38-.03,0-.06,0-.09,0Z"/>
  <path class="cls-5" d="M109.78,334.47h-5.83c1.77-2.35.83-4.99,1.03-7.5.05-.64-.4-.73-.91-.73-1.55,0-3.11,0-4.66,0-.5,0-.96.06-.94.7.05,1.95-.21,3.91.2,5.85.13.63.66,1.02,1.07,1.67h-5.85c1.47-2.3,1.59-14.73.15-17.23h5.55c-1.79,2.4-.96,5.05-1.09,7.57-.02.49.43.63.87.63,1.61,0,3.22,0,4.84,0,.37,0,.78-.13.75-.53-.17-2.51.76-5.16-.91-7.63h5.42c-1.51,2.95-1.41,14.97.33,17.19Z"/>
  <path class="cls-5" d="M171.29,323.83c-.52-3.5-3.03-6.26-6.18-6.54-2.56-.23-5.15-.05-8.06-.05,1.25.96,1.14,2.12,1.13,3.26-.01,3.68-.02,7.36,0,11.04,0,1.07-.04,2.08-1,3,1.72,0,3.45-.09,5.16.02,6.8.42,9.8-4.79,8.93-10.72ZM166.44,331.42c-.59,1.17-1.58,1.93-2.93,2.22-1.22.27-1.85.04-1.79-1.39.09-2.13.02-4.26.02-6.39s.07-4.38-.02-6.57c-.06-1.26.51-1.47,1.54-1.34,1.52.19,2.58,1.09,3.21,2.36,1.83,3.68,1.83,7.42-.03,11.1Z"/>
  <path class="cls-5" d="M129.06,323.9c-.56-3.11-1.99-5.74-5.26-6.65-6.52-1.82-11.03,2.13-11.01,8.79,0,.16.02.62.05,1.08.33,4.3,3.18,7.32,7.25,7.67,4.47.39,7.67-1.9,8.8-6.27.4-1.54.44-3.1.17-4.62ZM123.96,331.98c-1.76,2.6-4.43,2.52-6.06-.19-.91-1.52-1.53-4.01-1.51-6.11.08-2.03.43-4,1.46-5.78,1.64-2.83,4.32-2.92,6.14-.23,2.12,3.13,2.1,9.16-.02,12.31Z"/>
  <path class="cls-5" d="M206.25,328.93c1.09,2.46,2.69,4,5.04,4.69,1.23.36,2.32.18,3.07-.91.74-1.06.62-2.16-.1-3.22-.71-1.04-1.77-1.62-2.8-2.25-1.27-.79-2.58-1.52-3.78-2.41-1.59-1.19-2.46-2.8-1.88-4.82.58-2.03,2.28-2.83,4.18-3.09,1.18-.16,2.42-.12,3.62.02,3.2.37,3.74,1.3,2.77,4.61-.65-.09-.65-.72-.89-1.13-.8-1.36-1.98-2.23-3.48-2.65-1.11-.31-2.08-.02-2.68,1.01-.59,1.02-.44,1.97.44,2.81,1.1,1.04,2.43,1.74,3.72,2.48,1.1.64,2.13,1.36,3.08,2.2,1.58,1.38,1.85,3.18,1.41,5.05-.4,1.73-1.79,2.65-3.42,3.08-2.15.57-4.33.55-6.47-.11-2.61-.8-3.26-2.48-1.84-5.38Z"/>
  <path class="cls-5" d="M188.18,334.41c-1.67-.99-2.15-2.32-2.64-3.68-1.52-4.22-3.05-8.44-4.61-12.64-.16-.43-.11-1.16-.84-1.12-.6.04-.56.68-.7,1.07-1.47,3.99-2.9,8-4.34,12-.57,1.58-1,3.27-2.93,4.42h3.84c-1.03-1.6-.18-2.86.46-4.11.18-.36,4.67-.38,4.88-.01.75,1.28,1.64,2.57.64,4.08h6.23ZM180.26,329.35c-1.13-.01-2.27,0-3.62,0,.73-2.04,1.4-3.9,2.07-5.76.13,0,.26.01.38.02.6,1.65,1.19,3.3,1.79,4.94.23.63-.04.82-.63.81Z"/>
  <path class="cls-5" d="M196.72,323.99c1.13-2.24,3.26-3.83,3.49-6.44.05-.53.48-.38.78-.39.74-.03,1.49,0,2.61,0-2.99,2.15-4.16,5.24-5.9,7.91-1.07,1.64-.42,7.81.98,9.46h-5.91c1.44-3.14,1.85-6.39.14-9.38-1.59-2.78-2.81-5.92-6.04-8,2.16,0,3.96,0,5.77,0,.25,0,.59-.08.6.38.1,2.67,2.39,4.17,3.47,6.45Z"/>
  <path class="cls-5" d="M144.67,329.5c.68,1.94.36,3.24-.02,4.53-.18.59-.7.5-1.15.5-3.62,0-7.24,0-10.92,0,1.51-2.4,1.63-14.85.17-17.3h5.68c-1.17,1.19-1.26,2.54-1.26,3.92.01,3.68.05,7.36-.02,11.05-.02,1.22.4,1.52,1.58,1.58,2.89.14,5.06-.69,5.93-4.28Z"/>
  <path class="cls-5" d="M147.92,317.2h5.53c-1.52,2.73-1.48,14.8.07,17.26-1.92,0-3.79,0-5.66,0,1.45-2.4,1.56-14.9.06-17.25Z"/>
  <path class="cls-3" d="M166.44,331.42c-.59,1.17-1.58,1.93-2.93,2.22-1.22.27-1.85.04-1.79-1.39.09-2.13.02-4.26.02-6.39s.07-4.38-.02-6.57c-.06-1.26.51-1.47,1.54-1.34,1.52.19,2.58,1.09,3.21,2.36,1.83,3.68,1.83,7.42-.03,11.1Z"/>
</svg>